<?xml version="1.0" standalone="no"?>
<!DOCTYPE svg PUBLIC "-//W3C//DTD SVG 20010904//EN"
 "http://www.w3.org/TR/2001/REC-SVG-20010904/DTD/svg10.dtd">
<svg version="1.0" xmlns="http://www.w3.org/2000/svg"
 width="300.000000pt" height="300.000000pt" viewBox="0 0 300.000000 300.000000"
 preserveAspectRatio="xMidYMid meet" style="color : #33fe27;">

<g transform="translate(0.000000,300.000000) scale(0.100000,-0.100000)"
fill="#000000" stroke="none">
<path style="fill : #33fe27" d="M1255 2924 c-33 -7 -84 -19 -113 -25 l-54 -11 4 -85 3 -85 -90 -39
-90 -39 -60 65 -60 65 -102 -68 c-56 -37 -102 -71 -102 -75 -1 -5 15 -42 35
-83 l35 -74 -68 -65 c-37 -36 -72 -65 -78 -65 -7 0 -40 14 -75 31 -34 16 -68
28 -75 25 -13 -5 -135 -183 -135 -197 0 -4 27 -34 60 -66 l60 -58 -35 -85 -35
-85 -88 2 -89 3 -23 -118 c-12 -64 -23 -121 -24 -125 0 -5 35 -22 80 -39 l81
-30 0 -97 -1 -98 -50 -18 c-28 -10 -65 -24 -82 -31 l-32 -13 18 -83 c10 -46
21 -100 24 -120 l7 -37 90 -3 90 -3 35 -85 35 -85 -61 -58 c-33 -31 -60 -61
-60 -66 0 -14 122 -192 135 -197 7 -3 40 8 74 25 33 17 67 31 74 31 7 0 44
-30 80 -66 l67 -66 -35 -73 c-19 -40 -35 -77 -34 -82 0 -4 46 -38 102 -75
l102 -68 60 65 60 65 90 -39 90 -39 0 -88 0 -88 95 -17 c52 -9 107 -20 122
-24 22 -6 27 -3 33 17 4 12 16 49 27 81 l21 58 101 -3 101 -3 21 -60 c34 -98
34 -97 63 -89 14 4 69 14 121 23 l95 17 -4 92 c-2 67 0 92 9 92 7 0 47 15 91
34 l78 34 59 -63 59 -64 106 70 c87 58 105 74 98 87 -24 48 -61 130 -61 138 0
15 124 134 139 134 7 0 42 -14 77 -31 34 -17 67 -30 72 -28 6 2 40 49 77 104
l67 100 -61 55 c-34 30 -61 61 -61 68 0 7 11 38 25 67 13 30 27 66 31 79 6 24
9 25 97 28 l92 3 6 35 c29 149 38 204 36 205 -1 1 -24 10 -52 20 -27 9 -63 22
-78 27 l-28 11 3 100 3 100 78 25 77 26 -6 35 c-11 64 -35 186 -40 203 -5 16
-15 17 -93 11 l-88 -6 -7 27 c-4 15 -18 51 -31 81 -14 29 -25 60 -25 67 0 7
27 38 61 68 l61 55 -67 103 c-37 56 -73 102 -80 102 -6 0 -39 -13 -73 -30 -34
-17 -68 -30 -75 -30 -7 0 -41 29 -76 64 -71 71 -71 69 -19 165 15 30 25 58 21
62 -5 4 -53 37 -107 73 l-99 67 -61 -66 -61 -65 -60 28 c-33 16 -73 32 -89 36
l-29 7 7 88 7 89 -28 6 c-16 3 -62 13 -103 21 -41 8 -84 17 -96 20 -17 5 -24
0 -37 -28 -10 -19 -17 -40 -17 -46 0 -6 -7 -28 -15 -49 l-16 -39 -97 1 -97 1
-30 82 c-16 46 -34 82 -40 82 -5 -1 -37 -7 -70 -15z m68 -302 c-44 -15 -58
-26 -23 -18 44 11 74 -29 58 -76 -13 -36 -33 -31 -33 8 -1 19 -6 29 -15 29 -8
0 -14 -6 -12 -14 15 -69 15 -71 -7 -71 -11 0 -21 5 -21 10 0 6 -15 10 -33 10
-26 0 -36 6 -45 25 -10 21 -9 28 9 46 11 11 27 18 35 15 8 -3 14 -1 14 4 0 13
-24 13 -70 -1 l-37 -11 18 -49 c23 -61 24 -81 3 -77 -9 2 -24 25 -34 52 -22
56 -25 60 -39 52 -6 -4 -5 -18 4 -40 16 -39 6 -49 -33 -35 -18 7 -21 14 -16
33 5 21 3 24 -15 19 -33 -9 -34 -18 -5 -79 21 -45 24 -58 13 -64 -18 -12 -21
-9 -49 49 -14 28 -31 51 -38 51 -8 0 -2 -21 17 -59 17 -32 27 -61 24 -65 -16
-15 -31 -2 -54 44 -15 30 -31 49 -41 50 -26 0 -22 -17 17 -70 29 -40 33 -49
21 -59 -10 -8 -16 -9 -21 -1 -4 7 -15 3 -32 -10 -35 -27 -53 -25 -86 10 -27
28 -47 38 -47 24 0 -4 18 -26 40 -50 25 -27 37 -49 34 -59 -9 -23 -17 -19 -63
31 -33 36 -45 44 -54 35 -9 -10 -2 -22 34 -54 26 -23 45 -48 42 -54 -5 -15
-33 -18 -33 -4 0 5 -7 11 -14 14 -12 5 -13 1 -7 -16 13 -34 -7 -66 -45 -73
-37 -7 -54 0 -54 22 0 9 11 14 35 14 25 0 35 4 35 15 0 13 -7 15 -34 9 -32 -5
-34 -4 -29 15 6 24 -12 29 -21 6 -7 -18 -36 -20 -36 -2 1 17 22 42 43 50 11 4
25 -1 37 -13 18 -18 21 -19 27 -4 6 16 -15 37 -28 28 -13 -8 -22 17 -10 29 20
20 12 26 -25 20 -29 -5 -36 -3 -32 8 3 9 23 15 57 17 53 3 63 22 11 22 -15 0
-35 3 -44 6 -14 5 -14 8 -1 20 11 12 19 12 35 4 34 -18 100 -21 100 -4 0 20
47 41 61 27 14 -14 2 -36 -14 -27 -9 5 -9 3 0 -6 10 -11 15 -11 27 0 9 7 24 9
33 5 17 -6 17 -7 1 -16 -21 -12 -24 -41 -4 -33 38 14 24 68 -22 85 l-27 10 35
29 c37 30 36 31 -24 45 -25 5 -27 8 -15 21 13 12 21 12 62 -2 62 -21 72 -16
69 33 -3 37 -1 41 30 54 34 15 137 16 147 2 7 -10 42 -10 58 0 28 17 178 44
185 33 4 -7 -7 -16 -29 -24z m218 28 c11 -6 19 -21 19 -35 0 -16 6 -25 15 -25
17 0 21 35 5 45 -18 11 0 25 31 25 29 0 41 -22 19 -35 -5 -3 -10 -33 -10 -66
0 -46 -3 -59 -15 -59 -9 0 -15 9 -15 25 l0 24 -25 -24 c-13 -14 -32 -25 -41
-25 -24 0 -64 39 -64 62 0 24 27 23 35 -1 7 -23 32 -34 41 -19 4 6 -4 19 -17
29 -22 18 -23 20 -6 30 26 15 21 30 -9 27 -31 -3 -45 18 -17 25 30 8 33 7 54
-3z m249 -30 c102 -26 194 -65 198 -84 2 -9 -1 -16 -6 -16 -5 0 -20 -25 -32
-55 -16 -39 -28 -55 -41 -55 -22 0 -22 0 -9 35 12 32 -7 69 -29 56 -10 -7 -11
-13 -1 -31 10 -18 9 -24 -1 -31 -8 -5 -17 -9 -21 -9 -9 0 -28 67 -28 97 0 25
15 39 25 23 4 -6 11 -7 17 -4 15 10 -20 34 -48 34 -19 0 -24 -8 -33 -52 -6
-29 -12 -69 -13 -88 -3 -32 -6 -35 -38 -38 -49 -4 -112 53 -80 73 6 4 20 -5
31 -19 20 -26 49 -35 49 -16 0 6 -6 10 -14 10 -27 0 -28 20 -2 30 20 7 26 17
26 40 0 33 -16 39 -35 13 -11 -15 -14 -14 -29 15 -22 43 -15 52 33 39 22 -6
44 -8 47 -4 11 11 1 16 -50 26 -52 10 -61 15 -51 30 7 12 16 10 135 -19z m225
-30 c0 -22 -29 -18 -33 3 -3 14 1 18 15 15 10 -2 18 -10 18 -18z m35 -75 c7
-8 9 -23 5 -32 -6 -17 -7 -17 -21 1 -12 18 -14 18 -14 3 0 -10 7 -20 15 -23
22 -9 19 -36 -3 -32 -11 2 -20 -1 -21 -7 -1 -5 9 -11 22 -13 17 -2 27 4 35 23
7 15 10 31 7 36 -4 5 -3 14 0 19 9 15 62 -17 167 -103 79 -63 97 -87 67 -87
-6 0 -30 -21 -54 -47 -34 -37 -46 -45 -55 -36 -10 9 -8 18 9 39 16 21 18 30
10 41 -8 9 -15 10 -24 3 -16 -13 -25 -2 -25 32 0 35 13 35 56 3 18 -14 35 -21
38 -17 3 5 -13 22 -34 38 -22 16 -40 32 -40 37 0 20 -21 2 -50 -43 -34 -53
-37 -55 -58 -41 -11 6 -6 20 23 59 33 46 38 72 15 72 -4 0 -19 -21 -33 -47
-16 -31 -31 -48 -43 -48 -13 0 -18 6 -16 18 2 9 -3 17 -9 17 -35 0 -66 68 -38
85 5 4 8 12 6 18 -13 36 38 62 63 32z m-462 -141 c20 -6 16 -11 -45 -52 -67
-45 -261 -162 -269 -162 -2 0 -26 -13 -52 -30 -27 -16 -52 -30 -55 -30 -9 0
-132 131 -132 141 0 17 114 73 210 103 92 29 283 46 343 30z m199 -46 c70 -25
170 -77 202 -105 3 -2 -29 -36 -70 -75 -40 -39 -106 -102 -145 -140 l-71 -69
-61 20 c-39 13 -87 21 -132 21 -38 0 -70 3 -70 6 0 3 20 32 45 64 52 67 117
187 135 245 6 22 13 46 15 53 7 20 59 14 152 -20z m-227 -63 c0 -2 -13 -27
-30 -55 -16 -28 -30 -53 -30 -57 0 -13 -106 -137 -207 -241 -120 -123 -146
-163 -165 -252 -13 -66 -3 -118 33 -164 l21 -27 40 36 c128 116 393 123 530
14 41 -32 48 -35 48 -17 0 7 12 23 27 35 49 43 123 22 138 -39 10 -39 -22 -93
-107 -183 -95 -100 -106 -122 -85 -164 11 -23 12 -33 4 -39 -13 -11 -51 0 -62
17 -4 7 -82 11 -231 11 -126 0 -224 4 -224 9 0 16 70 51 136 67 59 15 64 19
64 43 0 24 -5 28 -57 39 -32 8 -77 23 -101 34 -43 20 -102 72 -102 89 0 5 124
9 301 9 l300 0 -21 -27 c-33 -43 -106 -83 -182 -102 -67 -15 -69 -17 -66 -45
3 -26 9 -30 56 -42 29 -8 65 -20 81 -28 32 -17 41 -13 41 21 0 23 42 70 127
143 46 40 63 68 63 104 0 36 -18 42 -51 17 -28 -21 -36 -21 -341 -20 -411 2
-466 7 -520 45 -58 41 -82 92 -86 186 -4 70 -1 81 28 136 56 105 130 168 312
265 86 46 245 142 283 171 20 15 35 20 35 11z m901 -127 c12 -30 20 -33 49
-18 15 8 25 5 45 -13 22 -18 27 -34 32 -84 4 -40 2 -68 -5 -76 -9 -10 -5 -33
14 -93 38 -120 42 -134 49 -201 6 -54 5 -63 -9 -63 -9 0 -16 5 -16 10 0 6 -9
10 -20 10 -14 0 -21 9 -26 35 -6 34 -26 46 -40 23 -4 -6 1 -17 11 -24 24 -17
13 -40 -22 -47 -29 -5 -49 11 -33 27 6 6 10 19 10 31 0 35 29 67 58 63 19 -2
29 -12 39 -38 l13 -35 -4 48 c-2 27 -8 53 -13 58 -5 5 -31 2 -62 -6 -30 -8
-58 -12 -63 -9 -14 9 -9 34 6 34 10 0 16 13 18 37 3 35 16 50 62 66 5 1 6 12
2 23 -5 17 -14 21 -51 20 -25 -1 -45 -6 -45 -12 0 -20 -25 -44 -38 -35 -10 6
-7 21 14 70 27 62 46 74 52 33 3 -22 32 -32 32 -12 0 18 -41 92 -48 88 -4 -2
-30 -15 -58 -30 -28 -15 -54 -24 -58 -21 -15 15 -2 30 48 57 34 19 52 34 49
43 -8 19 -17 16 -68 -19 -34 -24 -48 -29 -57 -20 -8 8 -8 15 1 25 9 11 9 21 0
40 -10 22 -9 31 5 52 9 14 20 25 25 25 5 0 12 10 15 23 6 21 8 20 41 -18 19
-22 40 -52 46 -67z m-1941 -47 c0 -5 24 -24 53 -41 28 -18 53 -33 55 -35 1 -1
0 -10 -4 -19 -6 -15 -13 -13 -61 14 -49 28 -73 32 -73 11 0 -4 25 -18 55 -31
39 -16 55 -28 53 -39 -2 -9 -12 -15 -21 -15 -10 1 -20 -8 -23 -22 -7 -29 -40
-54 -69 -54 -18 0 -21 5 -17 29 4 28 -20 51 -33 31 -4 -6 1 -10 10 -10 9 0 15
-6 13 -12 -3 -7 -16 -13 -29 -13 -31 0 -40 42 -13 62 27 20 52 16 78 -12 21
-23 24 -24 30 -8 9 23 -29 56 -55 48 -9 -3 -20 -1 -23 4 -9 14 45 121 61 121
7 0 13 -4 13 -9z m318 -157 c34 -36 62 -69 62 -73 0 -4 -7 -22 -16 -40 -35
-71 -35 -201 0 -268 18 -35 83 -101 107 -108 11 -4 22 -18 25 -33 3 -15 11
-43 16 -62 l11 -34 -143 -139 c-79 -75 -148 -136 -153 -134 -6 2 -23 28 -39
58 -117 224 -120 556 -8 779 37 75 64 120 71 120 3 0 33 -29 67 -66z m1434
-26 c96 -196 122 -395 77 -598 -20 -93 -79 -237 -117 -285 l-19 -24 -114 118
c-173 178 -173 179 -162 193 39 52 50 253 19 333 l-15 40 142 137 c78 76 147
138 153 138 6 0 22 -24 36 -52z m-1851 -53 c9 -9 39 -21 65 -28 32 -8 50 -18
52 -29 3 -14 -3 -18 -25 -18 -15 0 -35 5 -43 10 -11 7 -17 5 -22 -8 -15 -37
-9 -45 26 -38 38 7 54 -5 31 -24 -37 -30 -113 -9 -100 28 14 37 17 65 8 59 -6
-4 -16 -27 -22 -52 -7 -30 -17 -45 -27 -45 -18 0 -17 7 12 108 16 57 19 59 45
37z m1124 -99 c15 -22 15 -27 1 -55 -20 -38 -20 -61 -2 -61 8 0 18 -4 21 -10
4 -6 -22 -10 -72 -9 -74 0 -77 1 -55 16 23 16 29 47 12 58 -5 3 -10 16 -10 27
0 55 76 79 105 34z m925 -134 c0 -27 -30 -66 -42 -54 -7 7 -4 21 8 41 20 35
34 40 34 13z m-2110 -42 c0 -22 4 -40 10 -40 5 0 7 7 3 15 -7 19 24 55 47 55
10 0 28 -9 41 -19 18 -15 21 -22 13 -31 -9 -9 -17 -9 -33 0 -12 6 -26 8 -31 5
-20 -12 2 -25 41 -25 32 0 39 -3 39 -20 0 -11 -4 -20 -10 -20 -5 0 -10 -9 -10
-19 0 -51 -72 -70 -92 -25 -10 21 -9 27 3 35 11 7 11 9 -3 9 -15 0 -18 -9 -18
-45 0 -33 -4 -45 -15 -45 -12 0 -15 18 -15 98 0 54 3 102 7 105 15 16 23 5 23
-33z m2220 -110 c0 -27 -4 -50 -10 -50 -11 0 -14 83 -3 93 12 12 13 8 13 -43z
m-2082 -81 c2 -12 -8 -18 -38 -23 -22 -3 -40 -8 -40 -10 0 -16 14 -36 26 -36
20 0 17 -17 -6 -40 -25 -25 -40 -18 -40 18 0 29 -15 60 -25 51 -3 -3 0 -30 7
-58 l12 -53 35 8 c100 21 135 -3 44 -30 -32 -10 -61 -18 -65 -19 -4 -1 -3 -8
1 -16 8 -12 16 -12 53 2 53 21 78 22 78 3 0 -11 -43 -32 -107 -51 -7 -3 -10
-11 -7 -19 6 -16 8 -15 87 18 35 15 38 15 44 -1 4 -9 2 -18 -3 -20 -30 -11
-58 -30 -62 -43 -4 -12 -1 -12 14 2 12 11 28 15 42 11 13 -3 22 -1 22 6 0 5 6
8 14 5 19 -7 20 -90 1 -98 -18 -6 -25 3 -25 31 0 13 -5 23 -11 23 -6 0 -8 -8
-4 -20 7 -24 -10 -60 -30 -60 -8 0 -19 8 -24 18 -6 9 -11 13 -11 9 0 -11 29
-67 35 -67 3 0 27 14 55 31 54 33 73 31 64 -7 -4 -14 -2 -24 5 -24 18 0 13
-52 -6 -66 -27 -20 -50 -17 -72 12 -27 35 -27 21 0 -23 26 -41 12 -70 -15 -32
-16 23 -16 23 -16 -14 0 -27 -4 -37 -16 -37 -13 0 -15 8 -10 53 6 49 6 51 -8
27 -9 -14 -15 -33 -16 -42 0 -10 -5 -18 -10 -18 -22 0 -22 33 -1 70 21 38 27
70 13 70 -4 0 -13 15 -21 33 -8 17 -27 59 -41 92 -15 33 -32 74 -37 90 -8 24
-16 31 -41 33 -43 4 -56 31 -48 100 8 67 24 101 37 81 6 -9 7 -4 3 15 -6 27
-5 28 22 23 16 -4 47 -2 69 2 53 12 69 9 73 -10z m2072 -84 c0 -8 7 -15 15
-15 9 0 12 6 8 16 -4 12 0 15 18 12 50 -7 30 -68 -23 -68 -19 0 -28 -4 -25
-12 2 -7 16 -12 31 -10 32 3 32 2 2 -89 -30 -91 -74 -185 -125 -264 -35 -56
-71 -83 -71 -53 0 7 -20 26 -45 41 -53 34 -56 38 -45 56 6 11 15 10 43 -8 l36
-22 11 21 c15 27 5 40 -31 40 -20 0 -29 5 -29 16 0 12 10 14 46 12 60 -4 76
-25 51 -67 -23 -39 -22 -48 3 -26 11 10 20 24 20 30 0 7 7 18 15 25 21 18 19
43 -6 58 -13 8 -18 19 -15 29 5 12 2 14 -14 9 -11 -3 -29 -9 -40 -12 -14 -4
-20 -2 -20 9 0 14 41 34 107 52 27 7 42 -14 20 -30 -20 -15 -22 -35 -4 -35 12
0 47 64 47 87 0 6 -27 20 -60 32 -43 16 -58 26 -53 36 6 19 5 19 70 -2 38 -12
56 -14 64 -6 11 11 -14 22 -83 37 -19 4 -28 13 -28 27 0 17 4 19 35 13 35 -6
45 2 25 22 -7 7 -3 17 10 32 24 26 40 28 40 7z m-1225 -265 c72 -25 203 -27
280 -5 l53 16 105 -108 c135 -139 167 -176 164 -188 -6 -17 -149 -83 -232
-106 -110 -31 -314 -33 -430 -4 -81 20 -277 111 -283 131 -3 10 68 83 211 216
40 37 72 68 73 68 0 0 27 -9 59 -20z m-611 -266 c9 -8 16 -19 16 -24 0 -13
-30 -40 -44 -40 -34 0 -48 52 -18 69 23 14 28 14 46 -5z m1571 -39 c0 -25 -4
-31 -26 -33 -29 -3 -44 18 -33 50 4 14 13 18 32 16 23 -2 27 -8 27 -33z
m-1416 -41 c44 -37 43 -112 0 -80 -9 6 -18 20 -20 31 -6 29 -41 25 -59 -8 -13
-23 -13 -29 -1 -36 8 -5 20 -7 28 -4 14 6 43 -13 43 -28 0 -21 -51 -29 -80
-14 -58 30 -67 90 -21 136 36 36 70 37 110 3z m1306 -25 c43 -27 62 -45 58
-55 -5 -13 -17 -18 -36 -15 -18 3 -47 -21 -47 -39 0 -11 -8 -24 -19 -29 -17
-9 -21 -3 -45 63 -31 88 -31 85 -8 102 24 19 25 18 97 -27z m-151 -106 c37
-63 38 -67 20 -80 -10 -7 -21 -13 -25 -13 -5 0 -25 30 -45 66 -36 64 -36 67
-19 80 10 8 21 14 24 14 3 0 23 -30 45 -67z m-1000 36 c26 -21 36 -59 14 -59
-6 0 -22 10 -35 22 -13 12 -23 17 -23 11 0 -5 9 -18 20 -28 46 -42 32 -95 -26
-95 -40 0 -84 36 -84 70 0 27 16 25 46 -7 13 -14 27 -23 31 -19 4 3 -6 19 -20
34 -43 45 -31 92 24 92 14 0 38 -9 53 -21z m883 -44 c12 -8 27 -31 33 -49 9
-29 8 -39 -5 -59 -16 -26 -85 -62 -105 -55 -7 2 -25 34 -40 71 l-29 67 42 20
c51 23 76 25 104 5z m-767 -5 c20 -11 20 -14 -15 -113 -15 -41 -20 -47 -39
-41 -11 4 -23 8 -25 10 -6 6 43 154 52 154 5 0 17 -4 27 -10z m137 -40 c51
-13 69 -39 52 -72 -7 -13 -11 -40 -10 -60 2 -26 -2 -38 -11 -38 -22 0 -36 14
-39 40 -6 35 -39 40 -39 5 0 -23 -4 -26 -27 -23 -25 3 -28 7 -26 38 2 19 8 57
14 83 9 37 15 47 28 43 9 -3 35 -10 58 -16z m472 -64 c5 -38 8 -73 5 -78 -11
-18 -45 -7 -75 24 l-31 33 7 -37 c6 -31 4 -37 -14 -43 -31 -10 -38 -1 -45 59
-3 30 -9 61 -12 70 -4 11 2 19 17 25 20 7 30 3 58 -23 l34 -31 -6 33 c-6 28
-3 34 16 41 12 5 25 6 29 2 3 -3 11 -37 17 -75z m-209 -36 c0 -77 -1 -80 -24
-80 -20 0 -24 6 -30 46 -3 26 -6 62 -6 80 0 31 3 34 30 34 l30 0 0 -80z m-101
-8 c13 -25 -5 -52 -34 -52 -29 0 -39 14 -31 46 8 29 50 34 65 6z"/>
<path style="fill : #33fe27" d="M983 2588 c-22 -11 -29 -28 -17 -40 7 -7 114 35 114 45 0 11 -72 7
-97 -5z"/>
<path  style="fill : #33fe27" d="M1227 2554 c-9 -10 2 -24 19 -24 8 0 14 7 14 15 0 15 -21 21 -33 9z"/>
<path  style="fill : #33fe27" d="M1902 2536 c1 -10 8 -17 13 -17 15 1 12 24 -3 29 -9 3 -13 -2 -10
-12z"/>
<path  style="fill : #33fe27" d="M2371 2159 c-18 -17 -20 -24 -10 -30 13 -8 49 6 49 19 -1 26 -18 31
-39 11z"/>
<path  style="fill : #33fe27" d="M2507 2073 c-2 -5 9 -30 24 -58 l29 -50 0 35 c0 53 -10 80 -31 80
-10 0 -20 -3 -22 -7z"/>
<path  style="fill : #33fe27" d="M2527 1823 c-10 -9 -9 -23 2 -23 5 0 11 7 15 15 5 15 -5 20 -17 8z"/>
<path  style="fill : #33fe27" d="M2560 1810 c-9 -16 -8 -18 5 -14 8 4 15 12 15 20 0 20 -7 17 -20 -6z"/>
<path  style="fill : #33fe27" d="M400 1486 c0 -10 9 -16 21 -16 24 0 21 23 -4 28 -10 2 -17 -3 -17
-12z"/>
<path  style="fill : #33fe27" d="M326 1296 c-8 -52 0 -89 17 -83 13 5 11 106 -3 120 -4 5 -11 -12 -14
-37z"/>
<path  style="fill : #33fe27" d="M456 1047 c3 -10 9 -15 12 -12 3 3 0 11 -7 18 -10 9 -11 8 -5 -6z"/>
<path  style="fill : #33fe27" d="M500 1041 c0 -6 4 -13 10 -16 6 -3 7 1 4 9 -7 18 -14 21 -14 7z"/>
<path  style="fill : #33fe27" d="M576 922 c-9 -15 12 -35 29 -28 14 5 15 9 5 21 -14 17 -26 19 -34 7z"/>
<path  style="fill : #33fe27" d="M2140 637 c0 -19 16 -31 24 -18 3 5 -1 14 -9 21 -12 10 -15 10 -15
-3z"/>
<path  style="fill : #33fe27" d="M1850 515 c0 -3 7 -22 15 -42 14 -34 17 -36 32 -20 14 13 14 21 5 42
-7 15 -20 25 -32 25 -11 0 -20 -2 -20 -5z"/>
<path  style="fill : #33fe27" d="M1265 469 c-10 -15 0 -21 27 -17 l23 3 -22 13 c-15 8 -24 9 -28 1z"/>
</g>
</svg>
